<?xml version="1.0" encoding="UTF-8"?>
<svg xmlns="http://www.w3.org/2000/svg" xmlns:xlink="http://www.w3.org/1999/xlink" width="30pt" height="34pt" viewBox="0 0 30 34" version="1.1">
<g id="surface1">
<path style=" stroke:none;fill-rule:nonzero;fill:rgb(0%,0%,0%);fill-opacity:1;" d="M 15.007812 9.363281 C 10.746094 9.363281 7.3125 12.769531 7.3125 16.992188 C 7.3125 21.21875 10.746094 24.625 15.007812 24.625 C 19.265625 24.625 22.699219 21.21875 22.699219 16.992188 C 22.699219 12.769531 19.265625 9.363281 15.007812 9.363281 Z M 15.007812 21.953125 C 12.253906 21.953125 10.003906 19.730469 10.003906 16.992188 C 10.003906 14.257812 12.246094 12.03125 15.007812 12.03125 C 17.765625 12.03125 20.007812 14.257812 20.007812 16.992188 C 20.007812 19.730469 17.757812 21.953125 15.007812 21.953125 Z M 24.808594 9.050781 C 24.808594 10.039062 24.007812 10.832031 23.015625 10.832031 C 22.019531 10.832031 21.222656 10.035156 21.222656 9.050781 C 21.222656 8.070312 22.023438 7.273438 23.015625 7.273438 C 24.007812 7.273438 24.808594 8.070312 24.808594 9.050781 Z M 29.90625 10.859375 C 29.792969 8.472656 29.242188 6.363281 27.480469 4.621094 C 25.726562 2.882812 23.597656 2.335938 21.195312 2.21875 C 18.714844 2.078125 11.289062 2.078125 8.8125 2.21875 C 6.414062 2.332031 4.285156 2.875 2.523438 4.617188 C 0.761719 6.355469 0.222656 8.46875 0.101562 10.851562 C -0.0390625 13.308594 -0.0390625 20.671875 0.101562 23.128906 C 0.214844 25.511719 0.761719 27.625 2.523438 29.363281 C 4.285156 31.105469 6.410156 31.648438 8.8125 31.769531 C 11.289062 31.910156 18.714844 31.910156 21.195312 31.769531 C 23.597656 31.65625 25.726562 31.113281 27.480469 29.363281 C 29.238281 27.625 29.785156 25.511719 29.90625 23.128906 C 30.046875 20.671875 30.046875 13.316406 29.90625 10.859375 Z M 26.707031 25.765625 C 26.183594 27.066406 25.171875 28.070312 23.851562 28.59375 C 21.878906 29.371094 17.191406 29.191406 15.007812 29.191406 C 12.824219 29.191406 8.128906 29.363281 6.160156 28.59375 C 4.847656 28.078125 3.835938 27.074219 3.308594 25.765625 C 2.523438 23.804688 2.707031 19.15625 2.707031 16.992188 C 2.707031 14.828125 2.53125 10.171875 3.308594 8.222656 C 3.832031 6.917969 4.839844 5.917969 6.160156 5.390625 C 8.136719 4.617188 12.824219 4.792969 15.007812 4.792969 C 17.191406 4.792969 21.882812 4.621094 23.851562 5.390625 C 25.164062 5.910156 26.175781 6.914062 26.707031 8.222656 C 27.488281 10.179688 27.308594 14.828125 27.308594 16.992188 C 27.308594 19.15625 27.488281 23.8125 26.707031 25.765625 Z M 26.707031 25.765625 "/>
</g>
</svg>
