<?xml version="1.0" encoding="UTF-8"?>
<svg xmlns="http://www.w3.org/2000/svg" xmlns:xlink="http://www.w3.org/1999/xlink" width="30pt" height="27pt" viewBox="0 0 30 27" version="1.1">
<g id="surface1">
<path style=" stroke:none;fill-rule:nonzero;fill:rgb(0%,0%,0%);fill-opacity:1;" d="M 28.386719 6.207031 C 28.578125 5.546875 28.386719 5.0625 27.457031 5.0625 L 24.390625 5.0625 C 23.609375 5.0625 23.25 5.480469 23.058594 5.941406 C 23.058594 5.941406 21.496094 9.796875 19.285156 12.296875 C 18.574219 13.019531 18.246094 13.253906 17.855469 13.253906 C 17.660156 13.253906 17.363281 13.019531 17.363281 12.359375 L 17.363281 6.207031 C 17.363281 5.414062 17.144531 5.0625 16.5 5.0625 L 11.675781 5.0625 C 11.1875 5.0625 10.894531 5.429688 10.894531 5.773438 C 10.894531 6.523438 12 6.695312 12.113281 8.804688 L 12.113281 13.382812 C 12.113281 14.386719 11.9375 14.570312 11.546875 14.570312 C 10.503906 14.570312 7.972656 10.699219 6.472656 6.269531 C 6.171875 5.410156 5.875 5.0625 5.089844 5.0625 L 2.019531 5.0625 C 1.144531 5.0625 0.96875 5.480469 0.96875 5.941406 C 0.96875 6.765625 2.011719 10.851562 5.816406 16.253906 C 8.355469 19.9375 11.925781 21.9375 15.175781 21.9375 C 17.128906 21.9375 17.371094 21.496094 17.371094 20.730469 C 17.371094 17.207031 17.191406 16.875 18.171875 16.875 C 18.625 16.875 19.40625 17.105469 21.230469 18.882812 C 23.3125 20.992188 23.65625 21.9375 24.824219 21.9375 L 27.890625 21.9375 C 28.765625 21.9375 29.207031 21.496094 28.953125 20.617188 C 28.371094 18.777344 24.425781 14.992188 24.25 14.738281 C 23.796875 14.148438 23.925781 13.886719 24.25 13.359375 C 24.253906 13.351562 28 8.015625 28.386719 6.207031 Z M 28.386719 6.207031 "/>
</g>
</svg>
